<mxfile host="127.0.0.1" modified="2023-12-08T03:51:55.829Z" agent="Mozilla/5.0 (Windows NT 10.0; Win64; x64; rv:120.0) Gecko/20100101 Firefox/120.0" etag="_Ic9zAwAEdQ7wmhRzBnX" version="21.6.2" type="device">
  <diagram name="Page-1" id="6VUwTv_iRYOo15ezfMEI">
    <mxGraphModel dx="2960" dy="2018" grid="1" gridSize="10" guides="1" tooltips="1" connect="1" arrows="1" fold="1" page="1" pageScale="1" pageWidth="850" pageHeight="1100" math="0" shadow="0">
      <root>
        <mxCell id="0" />
        <mxCell id="1" parent="0" />
        <mxCell id="narrativecellsbound-y7lLXApefx23ULEp5koT-33" value="" style="connectable=0;editable=1;moveable=0;movable=0;resizable=0;rotatable=0;deletable=0;locked=0;recursiveResize=0;expand=0;cloneable=0;allowArrows=0;strokeColor=#E6E6E6;dashed=1;fillColor=none;strokeWidth=2;perimeterSpacing=3;" vertex="1" parent="1">
          <mxGeometry x="320" y="280" width="980" height="100" as="geometry" />
        </mxCell>
        <mxCell id="narrativecellsbound-y7lLXApefx23ULEp5koT-23" value="" style="connectable=0;editable=1;moveable=0;movable=0;resizable=0;rotatable=0;deletable=0;locked=0;recursiveResize=0;expand=0;cloneable=0;allowArrows=0;strokeColor=#E6E6E6;dashed=1;fillColor=none;strokeWidth=2;perimeterSpacing=3;" vertex="1" parent="1">
          <mxGeometry x="320.6310160746862" y="140" width="1340.2965893294443" height="90.000001" as="geometry" />
        </mxCell>
        <mxCell id="narrativecellsbound-y7lLXApefx23ULEp5koT-8" value="" style="connectable=0;editable=1;moveable=0;movable=0;resizable=0;rotatable=0;deletable=0;locked=0;recursiveResize=0;expand=0;cloneable=0;allowArrows=0;strokeColor=#E6E6E6;dashed=1;fillColor=none;strokeWidth=2;perimeterSpacing=3;" vertex="1" parent="1">
          <mxGeometry x="320" width="1340" height="90" as="geometry" />
        </mxCell>
        <mxCell id="y7lLXApefx23ULEp5koT-5" value="" style="connectable=1;moveable=0;movable=1;resizable=1;rotatable=1;deletable=1;locked=0;recursiveResize=0;expand=0;cloneable=0;allowArrows=0;strokeColor=#E6D0DE;fillColor=#ddd;strokeWidth=2;perimeterSpacing=3;fillStyle=solid;comic=0;container=0;collapsible=0;dropTarget=0;;editable=0;movable=0;resizable=0;rotatable=0;" vertex="1" parent="1">
          <mxGeometry y="280" width="10" height="120" as="geometry" />
        </mxCell>
        <mxCell id="y7lLXApefx23ULEp5koT-3" value="" style="connectable=1;moveable=0;movable=1;resizable=1;rotatable=1;deletable=1;locked=0;recursiveResize=0;expand=0;cloneable=0;allowArrows=0;strokeColor=#E6D0DE;fillColor=#ddd;strokeWidth=2;perimeterSpacing=3;fillStyle=solid;comic=0;container=0;collapsible=0;dropTarget=0;;editable=0;movable=0;resizable=0;rotatable=0;" vertex="1" parent="1">
          <mxGeometry y="140" width="10" height="120" as="geometry" />
        </mxCell>
        <mxCell id="y7lLXApefx23ULEp5koT-1" value="" style="connectable=1;moveable=0;movable=1;resizable=1;rotatable=1;deletable=1;locked=0;recursiveResize=0;expand=0;cloneable=0;allowArrows=0;strokeColor=#E6D0DE;fillColor=#ddd;strokeWidth=2;perimeterSpacing=3;fillStyle=solid;comic=0;container=0;collapsible=0;dropTarget=0;;editable=0;movable=0;resizable=0;rotatable=0;" vertex="1" parent="1">
          <mxGeometry width="10" height="120" as="geometry" />
        </mxCell>
        <mxCell id="y7lLXApefx23ULEp5koT-2" style="text;html=1;strokeColor=none;fillColor=none;align=center;locked=1;verticalAlign=middle;whiteSpace=wrap;rounded=0;flipV=0;direction=south;horizontal=0;fontSize=20;fontStyle=0;fontFamily=Helvetica;connectable=0;allowArrows=0;editable=1;movable=0;resizable=0;rotatable=0;deletable=0;locked=0;cloneable=0;pointerEvents=0;expand=0;recursiveResize=0;fontColor=#c0c0c0;" vertex="1" parent="1">
          <mxGeometry x="-200" width="100" height="120" as="geometry" />
        </mxCell>
        <mxCell id="y7lLXApefx23ULEp5koT-4" style="text;html=1;strokeColor=none;fillColor=none;align=center;locked=1;verticalAlign=middle;whiteSpace=wrap;rounded=0;flipV=0;direction=south;horizontal=0;fontSize=20;fontStyle=0;fontFamily=Helvetica;connectable=0;allowArrows=0;editable=1;movable=0;resizable=0;rotatable=0;deletable=0;locked=0;cloneable=0;pointerEvents=0;expand=0;recursiveResize=0;fontColor=#c0c0c0;" vertex="1" parent="1">
          <mxGeometry x="-200" y="140" width="100" height="120" as="geometry" />
        </mxCell>
        <mxCell id="y7lLXApefx23ULEp5koT-6" style="text;html=1;strokeColor=none;fillColor=none;align=center;locked=1;verticalAlign=middle;whiteSpace=wrap;rounded=0;flipV=0;direction=south;horizontal=0;fontSize=20;fontStyle=0;fontFamily=Helvetica;connectable=0;allowArrows=0;editable=1;movable=0;resizable=0;rotatable=0;deletable=0;locked=0;cloneable=0;pointerEvents=0;expand=0;recursiveResize=0;fontColor=#c0c0c0;" vertex="1" parent="1">
          <mxGeometry x="-200" y="280" width="100" height="120" as="geometry" />
        </mxCell>
        <mxCell id="y7lLXApefx23ULEp5koT-14" value="Causes" style="editable=1;endArrow=classic;html=1;rounded=1;strokeWidth=3;snapToPoint=1;" edge="1" parent="1" source="y7lLXApefx23ULEp5koT-7" target="y7lLXApefx23ULEp5koT-13">
          <mxGeometry relative="1" as="geometry">
            <Array as="points" />
          </mxGeometry>
        </mxCell>
        <mxCell id="y7lLXApefx23ULEp5koT-16" value="Causes" style="editable=1;endArrow=classic;html=1;rounded=1;strokeWidth=3;snapToPoint=1;" edge="1" parent="1" source="y7lLXApefx23ULEp5koT-7" target="y7lLXApefx23ULEp5koT-15">
          <mxGeometry relative="1" as="geometry">
            <Array as="points" />
          </mxGeometry>
        </mxCell>
        <NarrativeItem natype="NarrativeItem" label="Careless operation on the saki base" id="y7lLXApefx23ULEp5koT-7">
          <mxCell style="html=1;absoluteArcSize=1;editable=1;rounded=1;whiteSpace=wrap;fontColor=#333333;strokeColor=default;autosize=1;resizeHeight=0;resizeWidth=1;fixedWidth=1;strokeColor=#cab2d6;strokeWidth=2" vertex="1" parent="1">
            <mxGeometry x="320" y="30" width="260" height="30" as="geometry" />
          </mxCell>
        </NarrativeItem>
        <Narrative label="Narrative" cells="[&quot;y7lLXApefx23ULEp5koT-7&quot;,&quot;y7lLXApefx23ULEp5koT-13&quot;,&quot;y7lLXApefx23ULEp5koT-15&quot;,&quot;y7lLXApefx23ULEp5koT-17&quot;,&quot;y7lLXApefx23ULEp5koT-20&quot;]" id="y7lLXApefx23ULEp5koT-8">
          <mxCell style="text;strokeColor=none;fillColor=none;align=center;verticalAlign=middle;whiteSpace=wrap;rounded=0;fontSize=24;connectable=0;;fontColor=#cab2d6;" vertex="1" parent="1">
            <mxGeometry x="10" width="260" height="40" as="geometry" />
          </mxCell>
        </Narrative>
        <mxCell id="y7lLXApefx23ULEp5koT-19" value="Causes" style="editable=1;endArrow=classic;html=1;rounded=1;strokeWidth=3;snapToPoint=1;" edge="1" parent="1" source="y7lLXApefx23ULEp5koT-13" target="y7lLXApefx23ULEp5koT-17">
          <mxGeometry relative="1" as="geometry">
            <Array as="points" />
          </mxGeometry>
        </mxCell>
        <NarrativeItem natype="NarrativeItem" label="Storage of munitions and fuel too close together" id="y7lLXApefx23ULEp5koT-13">
          <mxCell style="html=1;absoluteArcSize=1;editable=1;rounded=1;whiteSpace=wrap;fontColor=#333333;strokeColor=default;autosize=1;resizeHeight=0;resizeWidth=1;fixedWidth=1;strokeColor=#cab2d6;strokeWidth=2" vertex="1" parent="1">
            <mxGeometry x="680" width="260" height="30" as="geometry" />
          </mxCell>
        </NarrativeItem>
        <mxCell id="y7lLXApefx23ULEp5koT-18" value="Causes" style="editable=1;endArrow=classic;html=1;rounded=1;strokeWidth=3;snapToPoint=1;" edge="1" parent="1" source="y7lLXApefx23ULEp5koT-15" target="y7lLXApefx23ULEp5koT-17">
          <mxGeometry relative="1" as="geometry">
            <Array as="points" />
          </mxGeometry>
        </mxCell>
        <NarrativeItem natype="NarrativeItem" label="Accident triggering an initial explosion" id="y7lLXApefx23ULEp5koT-15">
          <mxCell style="html=1;absoluteArcSize=1;editable=1;rounded=1;whiteSpace=wrap;fontColor=#333333;strokeColor=default;autosize=1;resizeHeight=0;resizeWidth=1;fixedWidth=1;strokeColor=#cab2d6;strokeWidth=2" vertex="1" parent="1">
            <mxGeometry x="680" y="60" width="260" height="30" as="geometry" />
          </mxCell>
        </NarrativeItem>
        <mxCell id="y7lLXApefx23ULEp5koT-21" value="Causes" style="editable=1;endArrow=classic;html=1;rounded=1;strokeWidth=3;snapToPoint=1;" edge="1" parent="1" source="y7lLXApefx23ULEp5koT-17" target="y7lLXApefx23ULEp5koT-20">
          <mxGeometry relative="1" as="geometry">
            <Array as="points" />
          </mxGeometry>
        </mxCell>
        <mxCell id="y7lLXApefx23ULEp5koT-25" value="Explains" style="editable=1;endArrow=classic;html=1;rounded=0;strokeWidth=3;strokeColor=#00CC00;snapToPoint=1;" edge="1" parent="1" source="y7lLXApefx23ULEp5koT-17" target="y7lLXApefx23ULEp5koT-22">
          <mxGeometry relative="1" as="geometry" />
        </mxCell>
        <mxCell id="y7lLXApefx23ULEp5koT-27" value="Explains" style="editable=1;endArrow=classic;html=1;rounded=0;strokeWidth=3;strokeColor=#00CC00;snapToPoint=1;" edge="1" parent="1" source="y7lLXApefx23ULEp5koT-17" target="y7lLXApefx23ULEp5koT-26">
          <mxGeometry relative="1" as="geometry" />
        </mxCell>
        <NarrativeItem natype="NarrativeItem" label="Massive explosions in fuel or munitions dumps" id="y7lLXApefx23ULEp5koT-17">
          <mxCell style="html=1;absoluteArcSize=1;editable=1;rounded=1;whiteSpace=wrap;fontColor=#333333;strokeColor=default;autosize=1;resizeHeight=0;resizeWidth=1;fixedWidth=1;strokeColor=#cab2d6;strokeWidth=2" vertex="1" parent="1">
            <mxGeometry x="1040" y="30" width="260" height="30" as="geometry" />
          </mxCell>
        </NarrativeItem>
        <mxCell id="y7lLXApefx23ULEp5koT-29" value="Explains" style="editable=1;endArrow=classic;html=1;rounded=0;strokeWidth=3;strokeColor=#00CC00;snapToPoint=1;" edge="1" parent="1" source="y7lLXApefx23ULEp5koT-20" target="y7lLXApefx23ULEp5koT-28">
          <mxGeometry relative="1" as="geometry" />
        </mxCell>
        <mxCell id="y7lLXApefx23ULEp5koT-31" value="Explains" style="editable=1;endArrow=classic;html=1;rounded=0;strokeWidth=3;strokeColor=#00CC00;snapToPoint=1;" edge="1" parent="1" source="y7lLXApefx23ULEp5koT-20" target="y7lLXApefx23ULEp5koT-30">
          <mxGeometry relative="1" as="geometry" />
        </mxCell>
        <NarrativeItem natype="NarrativeItem" label="Destruction of aircraft on the ground" id="y7lLXApefx23ULEp5koT-20">
          <mxCell style="html=1;absoluteArcSize=1;editable=1;rounded=1;whiteSpace=wrap;fontColor=#333333;strokeColor=default;autosize=1;resizeHeight=0;resizeWidth=1;fixedWidth=1;strokeColor=#cab2d6;strokeWidth=2" vertex="1" parent="1">
            <mxGeometry x="1400" y="30" width="260" height="30" as="geometry" />
          </mxCell>
        </NarrativeItem>
        <Narrative label="Evidence" cells="[&quot;y7lLXApefx23ULEp5koT-22&quot;,&quot;y7lLXApefx23ULEp5koT-26&quot;,&quot;y7lLXApefx23ULEp5koT-28&quot;,&quot;y7lLXApefx23ULEp5koT-30&quot;,&quot;y7lLXApefx23ULEp5koT-35&quot;]" id="y7lLXApefx23ULEp5koT-23">
          <mxCell style="text;strokeColor=none;fillColor=none;align=center;verticalAlign=middle;whiteSpace=wrap;rounded=0;fontSize=24;connectable=0;;fontColor=#ff7f00;" vertex="1" parent="1">
            <mxGeometry x="10" y="140" width="260" height="40" as="geometry" />
          </mxCell>
        </Narrative>
        <NarrativeEvidenceCore natype="NarrativeEvidenceCore" label="Four massive explosions" id="y7lLXApefx23ULEp5koT-22">
          <mxCell style="editable=1;rounded=0;whiteSpace=wrap;html=1;autosize=1;resizeHeight=0;resizeWidth=1;fixedWidth=1;strokeColor=#ff7f00;strokeWidth=2" vertex="1" parent="1">
            <mxGeometry x="1040.150778242762" y="170.20781313421963" width="260" height="30" as="geometry" />
          </mxCell>
        </NarrativeEvidenceCore>
        <NarrativeEvidenceCore natype="NarrativeEvidenceCore" label="Mani minor explosions" id="y7lLXApefx23ULEp5koT-26">
          <mxCell style="editable=1;rounded=0;whiteSpace=wrap;html=1;autosize=1;resizeHeight=0;resizeWidth=1;fixedWidth=1;strokeColor=#ff7f00;strokeWidth=2" vertex="1" parent="1">
            <mxGeometry x="1040.8916838907508" y="140.20781213421964" width="260" height="30" as="geometry" />
          </mxCell>
        </NarrativeEvidenceCore>
        <NarrativeEvidenceCore natype="NarrativeEvidenceCore" label="Aircraft destroyed" id="y7lLXApefx23ULEp5koT-28">
          <mxCell style="editable=1;rounded=0;whiteSpace=wrap;html=1;autosize=1;resizeHeight=0;resizeWidth=1;fixedWidth=1;strokeColor=#ff7f00;strokeWidth=2" vertex="1" parent="1">
            <mxGeometry x="1400.39948750226" y="140" width="260" height="30" as="geometry" />
          </mxCell>
        </NarrativeEvidenceCore>
        <NarrativeEvidenceCore natype="NarrativeEvidenceCore" label="Some aircraft right next to major explosions were untouched while others further away were destroyed" id="y7lLXApefx23ULEp5koT-30">
          <mxCell style="editable=1;rounded=0;whiteSpace=wrap;html=1;autosize=1;resizeHeight=0;resizeWidth=1;fixedWidth=1;strokeColor=#ff7f00;strokeWidth=2" vertex="1" parent="1">
            <mxGeometry x="1400.9276054041304" y="170.000001" width="260" height="60" as="geometry" />
          </mxCell>
        </NarrativeEvidenceCore>
        <mxCell id="y7lLXApefx23ULEp5koT-36" value="Explains" style="editable=1;endArrow=classic;html=1;rounded=0;strokeWidth=3;strokeColor=#00CC00;snapToPoint=1;" edge="1" parent="1" source="y7lLXApefx23ULEp5koT-32" target="y7lLXApefx23ULEp5koT-35">
          <mxGeometry relative="1" as="geometry">
            <Array as="points" />
          </mxGeometry>
        </mxCell>
        <mxCell id="y7lLXApefx23ULEp5koT-38" value="Causes" style="editable=1;endArrow=classic;html=1;rounded=1;strokeWidth=3;snapToPoint=1;" edge="1" parent="1" source="y7lLXApefx23ULEp5koT-32" target="y7lLXApefx23ULEp5koT-37">
          <mxGeometry relative="1" as="geometry">
            <Array as="points" />
          </mxGeometry>
        </mxCell>
        <NarrativeItem natype="NarrativeItem" label="US provides ATACMS to Ukraine" id="y7lLXApefx23ULEp5koT-32">
          <mxCell style="html=1;absoluteArcSize=1;editable=1;rounded=1;whiteSpace=wrap;fontColor=#333333;strokeColor=default;autosize=1;resizeHeight=0;resizeWidth=1;fixedWidth=1;strokeColor=#fdbf6f;strokeWidth=2" vertex="1" parent="1">
            <mxGeometry x="320" y="312.5" width="260" height="30" as="geometry" />
          </mxCell>
        </NarrativeItem>
        <Narrative label="Narrative" cells="[&quot;y7lLXApefx23ULEp5koT-32&quot;,&quot;y7lLXApefx23ULEp5koT-37&quot;,&quot;y7lLXApefx23ULEp5koT-39&quot;,&quot;y7lLXApefx23ULEp5koT-41&quot;]" id="y7lLXApefx23ULEp5koT-33">
          <mxCell style="text;strokeColor=none;fillColor=none;align=center;verticalAlign=middle;whiteSpace=wrap;rounded=0;fontSize=24;connectable=0;;fontColor=#fdbf6f;" vertex="1" parent="1">
            <mxGeometry x="10" y="280" width="260" height="40" as="geometry" />
          </mxCell>
        </Narrative>
        <NarrativeEvidenceCore natype="NarrativeEvidenceCore" label="US denies providing ATACMS to Ukraine" id="y7lLXApefx23ULEp5koT-35">
          <mxCell style="editable=1;rounded=0;whiteSpace=wrap;html=1;autosize=1;resizeHeight=0;resizeWidth=1;fixedWidth=1;strokeColor=#ff7f00;strokeWidth=2" vertex="1" parent="1">
            <mxGeometry x="320.6310160746862" y="154.54134145789658" width="260" height="30" as="geometry" />
          </mxCell>
        </NarrativeEvidenceCore>
        <mxCell id="y7lLXApefx23ULEp5koT-40" value="Causes" style="editable=1;endArrow=classic;html=1;rounded=1;strokeWidth=3;snapToPoint=1;" edge="1" parent="1" source="y7lLXApefx23ULEp5koT-37" target="y7lLXApefx23ULEp5koT-39">
          <mxGeometry relative="1" as="geometry">
            <Array as="points" />
          </mxGeometry>
        </mxCell>
        <mxCell id="y7lLXApefx23ULEp5koT-42" value="Causes" style="editable=1;endArrow=classic;html=1;rounded=1;strokeWidth=3;snapToPoint=1;" edge="1" parent="1" source="y7lLXApefx23ULEp5koT-37" target="y7lLXApefx23ULEp5koT-41">
          <mxGeometry relative="1" as="geometry">
            <Array as="points" />
          </mxGeometry>
        </mxCell>
        <NarrativeItem natype="NarrativeItem" label="Ukraine launches attack on Saki base with multiple ATACMS" id="y7lLXApefx23ULEp5koT-37">
          <mxCell style="html=1;absoluteArcSize=1;editable=1;rounded=1;whiteSpace=wrap;fontColor=#333333;strokeColor=default;autosize=1;resizeHeight=0;resizeWidth=1;fixedWidth=1;strokeColor=#fdbf6f;strokeWidth=2" vertex="1" parent="1">
            <mxGeometry x="680" y="340" width="260" height="40" as="geometry" />
          </mxCell>
        </NarrativeItem>
        <mxCell id="y7lLXApefx23ULEp5koT-43" value="Explains" style="editable=1;endArrow=classic;html=1;rounded=0;strokeWidth=3;strokeColor=#00CC00;snapToPoint=1;" edge="1" parent="1" source="y7lLXApefx23ULEp5koT-39" target="y7lLXApefx23ULEp5koT-22">
          <mxGeometry relative="1" as="geometry" />
        </mxCell>
        <NarrativeItem natype="NarrativeItem" label="Missiles strike fuels or munitions dumps" id="y7lLXApefx23ULEp5koT-39">
          <mxCell style="html=1;absoluteArcSize=1;editable=1;rounded=1;whiteSpace=wrap;fontColor=#333333;strokeColor=default;autosize=1;resizeHeight=0;resizeWidth=1;fixedWidth=1;strokeColor=#fdbf6f;strokeWidth=2" vertex="1" parent="1">
            <mxGeometry x="1040" y="280" width="260" height="30" as="geometry" />
          </mxCell>
        </NarrativeItem>
        <mxCell id="y7lLXApefx23ULEp5koT-44" value="Explains" style="editable=1;endArrow=classic;html=1;rounded=0;strokeWidth=3;strokeColor=#00CC00;snapToPoint=1;entryX=1;entryY=0.5;entryDx=0;entryDy=0;" edge="1" parent="1" source="y7lLXApefx23ULEp5koT-41" target="y7lLXApefx23ULEp5koT-26">
          <mxGeometry relative="1" as="geometry" />
        </mxCell>
        <mxCell id="y7lLXApefx23ULEp5koT-45" value="Explains" style="editable=1;endArrow=classic;html=1;rounded=0;strokeWidth=3;strokeColor=#00CC00;snapToPoint=1;" edge="1" parent="1" source="y7lLXApefx23ULEp5koT-41" target="y7lLXApefx23ULEp5koT-28">
          <mxGeometry relative="1" as="geometry" />
        </mxCell>
        <mxCell id="y7lLXApefx23ULEp5koT-46" value="Explains" style="editable=1;endArrow=classic;html=1;rounded=0;strokeWidth=3;strokeColor=#00CC00;snapToPoint=1;" edge="1" parent="1" source="y7lLXApefx23ULEp5koT-41" target="y7lLXApefx23ULEp5koT-30">
          <mxGeometry relative="1" as="geometry" />
        </mxCell>
        <NarrativeItem natype="NarrativeItem" label="Other missiles hit aircraft, or near them" id="y7lLXApefx23ULEp5koT-41">
          <mxCell style="html=1;absoluteArcSize=1;editable=1;rounded=1;whiteSpace=wrap;fontColor=#333333;strokeColor=default;autosize=1;resizeHeight=0;resizeWidth=1;fixedWidth=1;strokeColor=#fdbf6f;strokeWidth=2" vertex="1" parent="1">
            <mxGeometry x="1040" y="345" width="260" height="30" as="geometry" />
          </mxCell>
        </NarrativeItem>
      </root>
    </mxGraphModel>
  </diagram>
</mxfile>
